<?xml version="1.0" standalone="no"?>
<!DOCTYPE svg PUBLIC "-//W3C//DTD SVG 20010904//EN"
 "http://www.w3.org/TR/2001/REC-SVG-20010904/DTD/svg10.dtd">
<svg version="1.0" xmlns="http://www.w3.org/2000/svg"
 width="150.000000pt" height="150.000000pt" viewBox="0 0 150.000000 150.000000"
 preserveAspectRatio="xMidYMid meet">
<metadata>
Created by potrace 1.14, written by Peter Selinger 2001-2017
</metadata>
<g transform="translate(0.000000,150.000000) scale(0.100000,-0.100000)"
fill="#000000" stroke="none">
<path d="M554 1468 c-5 -9 -18 -17 -28 -19 -23 -5 -34 -29 -14 -29 11 0 13 -9
10 -32 -4 -29 -3 -31 19 -24 70 20 79 19 79 -3 0 -16 -6 -21 -25 -21 -27 0
-34 -14 -11 -23 25 -10 56 5 62 29 13 50 -18 75 -68 56 -22 -8 -28 -8 -25 1 2
7 25 13 50 15 33 2 47 7 47 18 0 9 -11 14 -31 14 -18 0 -37 7 -44 17 -11 15
-13 15 -21 1z"/>
<path d="M880 1465 c0 -7 14 -18 31 -24 41 -14 49 -14 49 3 0 8 -18 18 -40 24
-31 8 -40 7 -40 -3z"/>
<path d="M451 1453 c-7 -8 -11 -16 -8 -19 6 -7 37 7 37 16 0 16 -15 18 -29 3z"/>
<path d="M1033 1444 c-25 -11 -12 -24 25 -25 l37 -1 -35 -10 c-43 -12 -55 -22
-44 -40 5 -7 7 -25 5 -40 -3 -32 25 -51 71 -46 49 5 48 28 -2 28 -34 0 -41 3
-38 18 2 12 16 18 48 22 54 6 55 23 3 31 -21 3 -28 7 -16 8 27 1 93 32 93 42
0 4 -4 11 -10 14 -5 3 -10 2 -10 -4 0 -5 -10 -8 -22 -5 -50 10 -94 13 -105 8z"/>
<path d="M199 1397 c-31 -43 -37 -61 -16 -54 7 2 16 -12 22 -37 8 -34 15 -42
38 -44 16 -2 29 2 32 10 4 9 17 13 40 10 21 -3 35 0 35 7 0 6 -7 11 -15 11
-14 0 -21 38 -17 95 2 16 -7 23 -44 31 l-46 11 -29 -40z m101 -3 c0 -2 -9 -4
-20 -4 -11 0 -20 4 -20 9 0 5 9 7 20 4 11 -3 20 -7 20 -9z m-4 -35 c9 -15 -6
-26 -46 -33 l-35 -5 33 11 c17 6 32 15 32 21 0 5 -14 7 -32 3 -24 -4 -29 -3
-18 4 20 13 57 13 66 -1z m-41 -69 c-3 -5 -10 -10 -16 -10 -5 0 -9 5 -9 10 0
6 7 10 16 10 8 0 12 -4 9 -10z"/>
<path d="M698 1435 c-4 -4 -4 -14 -1 -22 3 -8 0 -19 -7 -23 -15 -9 -4 -31 13
-25 7 3 20 -9 30 -27 13 -23 21 -28 29 -20 9 9 7 17 -6 31 -21 23 -14 41 15
41 16 0 19 -5 14 -20 -8 -26 11 -26 25 1 10 17 7 25 -14 46 -22 22 -27 23 -32
9 -8 -20 -33 -21 -48 0 -6 8 -14 12 -18 9z"/>
<path d="M384 1412 c-15 -10 -34 -47 -34 -66 0 -25 18 -19 32 11 19 38 32 39
70 3 21 -20 34 -27 37 -19 4 14 -62 79 -81 79 -7 0 -18 -4 -24 -8z"/>
<path d="M855 1411 c-7 -12 12 -24 25 -16 17 10 70 -5 70 -21 0 -7 -11 -21
-25 -30 -28 -18 -33 -34 -10 -34 21 0 65 48 65 71 0 10 -9 23 -19 29 -24 13
-98 13 -106 1z"/>
<path d="M1182 1339 c5 -16 87 -42 106 -34 22 8 5 22 -35 29 -21 4 -46 10 -57
13 -12 3 -17 1 -14 -8z"/>
<path d="M1330 1279 c-30 -22 -72 -51 -93 -66 -20 -14 -35 -28 -33 -31 4 -3
129 82 185 125 2 2 2 5 0 7 -2 2 -29 -14 -59 -35z"/>
<path d="M519 1278 c-11 -21 -11 -22 5 -9 28 23 35 7 79 -185 20 -87 22 -110
13 -177 -6 -54 -13 -77 -23 -77 -8 0 -28 -7 -45 -16 -30 -15 -32 -15 -45 2
-12 17 -13 16 -13 -7 0 -14 -14 -38 -37 -59 -20 -19 -51 -59 -70 -89 -36 -55
-84 -177 -82 -208 0 -10 6 2 13 27 7 25 20 59 29 75 l16 30 1 -37 c0 -21 -4
-38 -10 -38 -5 0 -10 -10 -10 -22 0 -19 2 -20 11 -8 7 11 8 -12 4 -75 -4 -49
-7 -123 -7 -164 0 -119 -35 -44 -48 104 l-8 90 3 -95 c2 -65 10 -112 24 -149
27 -73 41 -85 41 -39 0 49 9 52 42 16 15 -16 21 -27 13 -24 -8 3 -17 1 -20 -3
-7 -13 32 -20 43 -9 16 16 24 -9 12 -32 -18 -34 -8 -73 22 -88 30 -14 123 0
135 21 3 7 2 9 -2 4 -5 -4 -17 1 -28 10 -19 17 -19 17 -13 -4 9 -27 -11 -32
-21 -6 -5 14 -8 13 -14 -5 -11 -28 -23 -28 -37 0 -8 18 -11 19 -11 6 -1 -28
-31 -9 -31 19 0 13 7 37 15 53 18 35 70 49 106 29 13 -7 26 -13 29 -12 3 1 6
-14 8 -33 3 -47 29 -84 57 -84 24 0 55 23 55 41 0 20 53 8 72 -17 11 -14 23
-22 26 -19 4 3 0 10 -8 16 -13 8 -13 10 0 18 8 6 11 13 7 18 -5 4 -12 2 -16
-5 -6 -10 -10 -10 -20 1 -9 12 -7 16 10 20 29 8 51 -2 45 -20 -3 -8 -1 -11 4
-8 14 9 12 -9 -2 -24 -11 -11 -10 -13 2 -9 9 3 15 17 16 35 1 38 38 100 65
108 11 4 16 11 13 18 -4 7 -3 8 1 4 14 -12 15 -39 2 -34 -30 10 -65 -60 -53
-107 5 -19 16 -25 61 -34 62 -13 114 -6 122 15 3 8 9 11 12 6 10 -13 49 -33
67 -33 14 0 13 5 -5 36 -12 19 -17 32 -11 29 5 -3 10 1 10 10 0 9 5 13 10 10
6 -3 10 3 10 14 0 25 9 26 36 6 25 -19 63 -19 71 1 6 15 -27 54 -46 54 -5 0
-9 9 -8 21 1 21 41 44 58 33 5 -3 9 -1 9 4 0 5 9 12 21 15 19 5 21 2 17 -31
-3 -20 -7 -41 -9 -47 -2 -5 0 -12 6 -15 5 -3 10 2 11 10 0 8 6 29 13 45 21 49
33 136 26 183 -5 34 -16 54 -49 86 -54 52 -82 49 -116 -13 -10 -20 -10 -41 0
-111 12 -81 11 -89 -10 -137 -12 -28 -34 -62 -50 -76 -28 -25 -70 -51 -73 -45
-1 2 -12 18 -25 36 -12 17 -18 32 -13 32 5 0 18 15 30 33 l21 32 0 -42 c0 -24
4 -43 9 -43 12 0 51 104 50 133 0 13 -7 2 -15 -25 -8 -26 -18 -49 -22 -52 -4
-2 -8 32 -10 77 -2 53 -8 90 -18 105 -13 20 -14 32 -5 67 14 54 14 125 1 159
-5 14 -7 26 -5 26 10 0 46 -84 59 -138 8 -31 15 -46 15 -32 1 38 -40 150 -79
214 -19 32 -57 79 -85 103 -47 43 -50 48 -49 92 l2 46 -10 -35 c-13 -48 -19
-52 -59 -38 -40 13 -43 17 -65 83 -21 64 -12 159 24 274 28 87 45 108 57 71 4
-12 9 -19 12 -16 9 8 -26 56 -40 56 -37 0 -106 -108 -131 -203 -8 -28 -16 -45
-19 -37 -3 8 -12 37 -21 64 -29 91 -93 176 -132 176 -7 0 -19 -10 -25 -22z
m163 -253 c3 -13 5 -59 5 -102 0 -71 0 -73 -7 -28 l-7 50 -1 -45 c-2 -41 -4
-46 -28 -48 -23 -2 -25 1 -19 28 4 16 7 59 7 95 0 52 3 65 14 61 8 -3 14 -1
14 4 0 21 18 9 22 -15z m88 -36 c0 -26 7 -63 15 -82 21 -52 19 -56 -24 -54
l-38 1 -6 73 c-7 92 -2 111 29 109 22 -1 24 -5 24 -47z m-50 -168 c92 8 137 3
191 -23 31 -15 69 -41 83 -58 32 -39 70 -159 63 -203 -6 -42 -36 -117 -37 -93
0 12 -5 16 -15 12 -10 -4 -17 3 -21 22 -4 15 -10 32 -14 37 -4 6 -15 34 -25
64 -9 29 -24 65 -31 80 -8 14 -14 32 -14 39 0 6 -4 12 -10 12 -13 0 -13 -6 4
-60 13 -46 6 -102 -14 -115 -14 -8 -13 28 1 42 6 6 9 17 7 23 -3 9 -8 8 -20
-3 -15 -15 -16 -14 -22 8 -5 21 -9 23 -20 13 -7 -7 -13 -19 -12 -27 1 -9 -7
-17 -16 -19 -14 -3 -18 3 -19 25 -1 21 -4 18 -11 -17 -12 -56 -38 -120 -49
-120 -5 0 -7 6 -5 13 1 6 1 8 -2 4 -6 -11 -52 33 -52 50 0 7 -4 13 -9 13 -5 0
-11 10 -14 22 -5 18 -8 19 -21 9 -13 -11 -17 -9 -26 14 -5 14 -10 38 -10 53 0
21 -2 24 -10 12 -5 -8 -10 -28 -10 -43 0 -25 -3 -28 -27 -25 -26 3 -28 6 -25
48 l2 45 -15 -28 c-9 -16 -14 -34 -12 -40 2 -7 -2 -24 -10 -39 -7 -16 -11 -28
-8 -28 4 0 3 -5 -1 -11 -4 -8 -9 -7 -16 2 -6 9 -7 2 -3 -21 5 -26 4 -31 -4
-20 -8 11 -11 4 -11 -32 0 -61 -14 -68 -40 -19 -30 60 -26 119 13 205 35 73
104 146 141 146 9 0 16 5 16 11 0 6 9 8 21 4 16 -5 19 -4 14 6 -6 9 -3 11 8 6
10 -3 17 -2 17 3 0 4 17 6 38 3 20 -2 48 -4 62 -2z m-170 -288 c-1 -27 -1 -27
-15 -9 -14 19 -12 36 6 36 5 0 9 -12 9 -27z m45 -9 c28 -36 28 -57 0 -34 -12
10 -15 10 -15 -1 0 -11 -2 -11 -10 1 -9 14 -14 70 -6 70 2 0 16 -16 31 -36z
m253 -1 c-2 -21 -8 -37 -14 -36 -5 1 -15 -7 -22 -18 -11 -16 -9 -18 10 -16 17
1 23 -4 24 -20 1 -12 -2 -21 -5 -19 -3 2 -16 0 -28 -5 -24 -9 -34 -59 -11 -59
6 0 8 -3 5 -6 -3 -4 -2 -15 4 -25 15 -29 77 -26 88 4 5 14 4 25 -3 29 -8 6 -7
8 2 8 6 0 12 12 13 28 l0 27 10 -24 c5 -13 10 -35 11 -48 3 -27 15 -29 40 -6
17 15 18 15 18 -11 0 -68 -72 -147 -153 -167 -151 -38 -340 23 -363 117 -3 13
-10 24 -15 24 -5 0 -9 7 -9 16 0 11 6 13 19 9 19 -6 19 -2 14 83 -3 49 -3 102
1 118 l7 28 25 -42 24 -41 -20 -33 c-11 -18 -20 -49 -19 -68 l1 -35 10 35 c15
53 45 89 68 83 22 -6 22 -6 14 -27 -3 -9 -16 -16 -29 -16 -22 0 -35 -17 -35
-46 0 -8 6 -14 14 -14 9 0 12 -7 9 -19 -11 -42 79 -51 92 -10 4 10 3 23 0 29
-3 5 -1 10 4 10 17 0 13 86 -4 100 -8 7 -15 16 -15 20 0 14 35 0 64 -25 26
-23 56 -24 56 -3 0 13 81 108 92 108 5 0 8 -17 6 -37z m81 -28 c14 -30 21 -63
20 -97 l-2 -53 -6 42 c-4 23 -15 51 -24 61 -9 10 -14 22 -10 27 5 4 0 5 -9 2
-25 -9 -32 10 -14 38 9 14 18 25 20 25 2 0 13 -20 25 -45z m101 -124 c0 -6 -4
-13 -10 -16 -5 -3 -10 1 -10 9 0 9 5 16 10 16 6 0 10 -4 10 -9z m-596 -27 c9
-24 7 -28 -9 -14 -17 14 -20 30 -6 30 5 0 12 -7 15 -16z m178 -3 c19 10 23 3
9 -19 -12 -20 -45 -11 -49 13 -3 16 -1 17 9 8 8 -8 18 -9 31 -2z m255 0 c10 9
13 8 13 -4 0 -8 -6 -17 -12 -20 -20 -6 -38 4 -38 21 0 12 3 13 12 4 8 -8 15
-9 25 -1z m197 -106 c-5 -20 -13 -37 -18 -38 -12 -2 -12 105 0 124 14 23 28
-44 18 -86z m-660 68 c3 -10 6 -36 7 -58 2 -22 6 -48 11 -57 6 -13 5 -16 -7
-12 -19 8 -42 96 -36 137 2 14 20 7 25 -10z m587 -114 c-26 -49 -26 -49 -1
-49 31 0 60 -36 60 -74 0 -38 -17 -57 -31 -35 -7 11 -9 10 -9 -3 0 -23 -26
-23 -39 -1 -6 10 -11 12 -11 6 0 -7 -7 -13 -16 -13 -11 0 -14 6 -9 23 6 22 6
22 -10 2 -14 -17 -17 -18 -25 -5 -22 34 -6 76 38 99 12 7 20 16 18 20 -3 4 6
24 19 44 14 20 26 42 26 49 1 7 3 5 6 -5 3 -10 -5 -36 -16 -58z m-528 26 c-3
-11 -1 -13 10 -9 8 3 18 1 22 -5 3 -6 -2 -11 -12 -11 -15 0 -16 -2 -3 -10 8
-5 24 -7 35 -4 16 4 17 3 5 -5 -23 -16 -48 -13 -59 7 -11 21 -11 63 1 56 4 -3
5 -11 1 -19z m17 -70 c0 -12 -19 -12 -23 0 -4 9 -1 12 9 8 7 -3 14 -7 14 -8z
m125 5 c13 -6 15 -9 5 -9 -8 0 -22 4 -30 9 -18 12 -2 12 25 0z m75 -40 c0 -17
7 -33 17 -39 17 -9 16 -11 -1 -30 -22 -24 -46 -28 -46 -6 0 8 -4 15 -10 15 -5
0 -10 6 -10 14 0 8 8 13 17 12 13 -1 17 7 17 32 0 17 4 32 8 32 4 0 8 -13 8
-30z m170 16 c0 -7 -9 -16 -21 -19 -21 -6 -21 -5 -3 13 23 23 24 23 24 6z"/>
<path d="M633 765 c-21 -15 -46 -69 -36 -79 3 -3 19 8 35 23 l31 28 26 -30 27
-30 29 30 c29 29 30 29 46 10 10 -13 22 -18 33 -14 14 6 15 10 5 29 -26 50
-66 61 -97 28 l-19 -20 -18 20 c-22 24 -34 25 -62 5z"/>
<path d="M493 284 c-7 -18 14 -35 36 -31 25 4 23 23 -4 35 -21 10 -27 9 -32
-4z"/>
<path d="M918 283 c-10 -2 -18 -11 -18 -19 0 -17 2 -17 35 -2 42 19 31 34 -17
21z"/>
<path d="M670 223 c0 -37 21 -53 72 -53 45 0 58 11 65 52 l5 36 -71 -1 -71 -2
0 -32z m113 3 c16 -8 16 -10 -4 -27 -27 -23 -49 -24 -75 -4 -18 15 -18 15 -1
29 19 15 48 15 80 2z"/>
<path d="M100 1287 c0 -3 28 -29 63 -58 48 -41 54 -45 27 -15 -34 37 -90 82
-90 73z"/>
<path d="M502 1225 c0 -16 2 -22 5 -12 2 9 2 23 0 30 -3 6 -5 -1 -5 -18z"/>
<path d="M893 1175 c0 -27 2 -38 4 -22 2 15 2 37 0 50 -2 12 -4 0 -4 -28z"/>
<path d="M493 1140 c0 -25 2 -35 4 -22 2 12 2 32 0 45 -2 12 -4 2 -4 -23z"/>
<path d="M901 1094 c0 -11 3 -14 6 -6 3 7 2 16 -1 19 -3 4 -6 -2 -5 -13z"/>
<path d="M481 1064 c0 -11 3 -14 6 -6 3 7 2 16 -1 19 -3 4 -6 -2 -5 -13z"/>
<path d="M911 1054 c0 -11 3 -14 6 -6 3 7 2 16 -1 19 -3 4 -6 -2 -5 -13z"/>
<path d="M472 1015 c0 -16 2 -22 5 -12 2 9 2 23 0 30 -3 6 -5 -1 -5 -18z"/>
<path d="M922 1005 c0 -16 2 -22 5 -12 2 9 2 23 0 30 -3 6 -5 -1 -5 -18z"/>
<path d="M462 950 c0 -19 2 -27 5 -17 2 9 2 25 0 35 -3 9 -5 1 -5 -18z"/>
<path d="M270 945 c0 -1 6 -8 14 -14 10 -8 16 -8 24 1 8 10 4 13 -14 14 -13 1
-24 1 -24 -1z"/>
<path d="M470 889 c0 -13 5 -31 10 -39 7 -11 8 -5 4 20 -8 43 -14 51 -14 19z"/>
<path d="M1150 740 c-13 -8 -12 -10 3 -10 9 0 17 5 17 10 0 12 -1 12 -20 0z"/>
<path d="M280 635 c-19 -14 -31 -25 -26 -25 13 0 66 34 66 42 0 11 0 11 -40
-17z"/>
<path d="M204 636 c4 -12 0 -24 -11 -33 -17 -13 -17 -14 -1 -9 14 4 17 0 14
-22 -2 -15 -1 -21 1 -14 2 6 8 12 13 12 5 0 11 -6 14 -12 3 -7 3 5 0 27 -4 22
-13 47 -22 55 -13 13 -14 13 -8 -4z"/>
<path d="M135 620 c4 -6 11 -8 16 -5 14 9 11 15 -7 15 -8 0 -12 -5 -9 -10z"/>
<path d="M83 593 c3 -13 1 -23 -4 -23 -5 0 -9 -5 -9 -11 0 -5 4 -8 9 -5 5 4
14 -6 20 -21 l11 -28 -5 33 c-4 30 2 37 28 33 4 0 7 4 7 10 0 6 -9 9 -20 6
-12 -3 -24 1 -31 11 -9 14 -10 13 -6 -5z"/>
<path d="M140 545 c0 -8 4 -15 10 -15 5 0 7 7 4 15 -4 8 -8 15 -10 15 -2 0 -4
-7 -4 -15z"/>
<path d="M1143 355 c0 -38 2 -53 4 -32 2 20 2 52 0 70 -2 17 -4 1 -4 -38z"/>
<path d="M1151 264 c0 -11 3 -14 6 -6 3 7 2 16 -1 19 -3 4 -6 -2 -5 -13z"/>
<path d="M1172 260 c0 -14 2 -19 5 -12 2 6 2 18 0 25 -3 6 -5 1 -5 -13z"/>
<path d="M1376 145 c-3 -8 -1 -15 4 -15 6 0 10 7 10 15 0 8 -2 15 -4 15 -2 0
-6 -7 -10 -15z"/>
<path d="M1290 104 c0 -5 -20 -31 -44 -57 -24 -26 -39 -46 -33 -44 18 6 91 97
84 104 -4 3 -7 2 -7 -3z"/>
</g>
</svg>
